<svg width="63" height="62" viewBox="0 0 63 62" fill="none" xmlns="http://www.w3.org/2000/svg">
<g clip-path="url(#clip0_410_5901)">
<path d="M23.75 31C26.8156 31 29.8124 30.0909 32.3613 28.3878C34.9103 26.6846 36.897 24.2639 38.0701 21.4316C39.2433 18.5993 39.5502 15.4828 38.9522 12.4761C38.3541 9.4694 36.8779 6.70757 34.7102 4.53985C32.5424 2.37214 29.7806 0.895906 26.7739 0.297835C23.7672 -0.300236 20.6507 0.00671593 17.8184 1.17987C14.9862 2.35303 12.5654 4.33971 10.8622 6.88867C9.15906 9.43763 8.25 12.4344 8.25 15.5C8.2541 19.6096 9.88845 23.5497 12.7944 26.4556C15.7003 29.3616 19.6404 30.9959 23.75 31ZM23.75 5.16667C25.7937 5.16667 27.7916 5.77271 29.4909 6.90815C31.1902 8.0436 32.5147 9.65744 33.2968 11.5456C34.0789 13.4338 34.2835 15.5115 33.8848 17.5159C33.4861 19.5204 32.5019 21.3616 31.0568 22.8068C29.6116 24.2519 27.7704 25.2361 25.7659 25.6348C23.7615 26.0335 21.6838 25.8289 19.7956 25.0468C17.9074 24.2647 16.2936 22.9402 15.1581 21.2409C14.0227 19.5416 13.4167 17.5437 13.4167 15.5C13.4167 12.7594 14.5054 10.1311 16.4432 8.19324C18.3811 6.25536 21.0094 5.16667 23.75 5.16667V5.16667Z" fill="#374957"/>
<path d="M23.75 36.166C17.586 36.1735 11.6767 38.6255 7.31807 42.9841C2.95948 47.3426 0.50752 53.252 0.5 59.4159C0.5 60.1011 0.772172 60.7582 1.25664 61.2426C1.74111 61.7271 2.39819 61.9993 3.08333 61.9993C3.76848 61.9993 4.42556 61.7271 4.91003 61.2426C5.39449 60.7582 5.66667 60.1011 5.66667 59.4159C5.66667 54.62 7.57187 50.0204 10.9632 46.6291C14.3544 43.2379 18.954 41.3327 23.75 41.3327C28.546 41.3327 33.1456 43.2379 36.5368 46.6291C39.9281 50.0204 41.8333 54.62 41.8333 59.4159C41.8333 60.1011 42.1055 60.7582 42.59 61.2426C43.0744 61.7271 43.7315 61.9993 44.4167 61.9993C45.1018 61.9993 45.7589 61.7271 46.2434 61.2426C46.7278 60.7582 47 60.1011 47 59.4159C46.9925 53.252 44.5405 47.3426 40.1819 42.9841C35.8233 38.6255 29.914 36.1735 23.75 36.166V36.166Z" fill="#374957"/>
<path d="M57.3329 20.3438C55.8953 20.4154 54.5445 21.0536 53.5762 22.1187C52.6079 23.1838 52.101 24.5891 52.1663 26.0271C52.2316 24.5891 51.7247 23.1838 50.7564 22.1187C49.7881 21.0536 48.4373 20.4154 46.9997 20.3438C45.562 20.4154 44.2112 21.0536 43.2429 22.1187C42.2746 23.1838 41.7677 24.5891 41.833 26.0271C41.833 30.4963 47.661 35.7327 50.5646 38.0628C51.0192 38.4267 51.5841 38.625 52.1663 38.625C52.7486 38.625 53.3134 38.4267 53.768 38.0628C56.6716 35.7378 62.4996 30.4963 62.4996 26.0271C62.5649 24.5891 62.058 23.1838 61.0897 22.1187C60.1214 21.0536 58.7706 20.4154 57.3329 20.3438V20.3438Z" fill="#374957"/>
</g>
<defs>
<clipPath id="clip0_410_5901">
<rect width="62" height="62" fill="white" transform="translate(0.5)"/>
</clipPath>
</defs>
</svg>
